<svg width="1051" height="910" viewBox="0 0 1051 910" fill="none" xmlns="http://www.w3.org/2000/svg">
<g clip-path="url(#clip0_29_47)">
<circle cx="544" cy="410" r="390" fill="url(#paint0_linear_29_47)"/>
<path fill-rule="evenodd" clip-rule="evenodd" d="M551 208.604C683.548 208.604 791 316.055 791 448.604C791 581.152 743.548 728.604 611 728.604C511.56 728.604 392.476 645.614 339.19 548.188C336.498 548.463 333.765 548.604 331 548.604C286.817 548.604 251 512.786 251 468.604C251 428.738 280.159 395.684 318.312 389.604C344.599 285.583 438.81 208.604 551 208.604ZM314.859 454.149L323.141 485.058Z" fill="white"/>
<path d="M314.859 454.149L323.141 485.058M551 208.604C683.548 208.604 791 316.055 791 448.604C791 581.152 743.548 728.604 611 728.604C511.56 728.604 392.476 645.614 339.19 548.188C336.498 548.463 333.765 548.604 331 548.604C286.817 548.604 251 512.786 251 468.604C251 428.738 280.159 395.684 318.312 389.604C344.599 285.583 438.81 208.604 551 208.604Z" stroke="black" stroke-width="24" stroke-linecap="round" stroke-linejoin="round"/>
<path d="M649.405 399.551C670.141 451.856 681.617 481.416 683.835 488.234C686.052 495.051 685.459 502.269 682.055 509.888" stroke="black" stroke-width="16" stroke-linecap="round" stroke-linejoin="round"/>
<path fill-rule="evenodd" clip-rule="evenodd" d="M568 588.604C595.33 595.27 618.664 598.604 638 598.604C657.336 598.604 674.003 595.27 688 588.604C675.33 621.937 651.997 638.604 618 638.604C584.003 638.604 567.336 621.937 568 588.604Z" stroke="black" stroke-width="16" stroke-linecap="round" stroke-linejoin="round"/>
<path fill-rule="evenodd" clip-rule="evenodd" d="M589 336.604C594.855 336.604 600.122 340.629 603.78 347.044L597 360.604L608.37 360.604C608.781 363.161 609 365.841 609 368.604C609 386.277 600.046 400.604 589 400.604C577.954 400.604 569 386.277 569 368.604C569 350.93 577.954 336.604 589 336.604ZM727 336.604C732.855 336.604 738.122 340.629 741.78 347.044L735 360.604L746.37 360.604C746.781 363.161 747 365.841 747 368.604C747 386.277 738.046 400.604 727 400.604C715.954 400.604 707 386.277 707 368.604C707 350.93 715.954 336.604 727 336.604Z" fill="black"/>
<path d="M544 337.604C556.889 326.937 571.889 321.604 589 321.604C606.111 321.604 621.111 326.937 634 337.604" stroke="black" stroke-width="16" stroke-linecap="round" stroke-linejoin="round"/>
<path d="M682 337.604C694.889 326.937 709.889 321.604 727 321.604C744.111 321.604 759.111 326.937 772 337.604" stroke="black" stroke-width="16" stroke-linecap="round" stroke-linejoin="round"/>
<path fill-rule="evenodd" clip-rule="evenodd" d="M815.197 328.428C821.432 336.304 823.214 381.197 794.711 407.188C777.404 422.97 737.381 427.091 710.986 417.427C694.083 411.237 685.828 393.326 683.445 389.194L683.374 389.073C675.818 376.225 667.694 367.4 659 362.601C650.444 367.324 642.44 375.945 634.986 388.464L634.626 389.073C632.338 392.963 624.088 411.175 607.014 417.427C580.619 427.091 540.596 422.97 523.289 407.188C494.786 381.197 496.568 336.304 502.803 328.428C509.037 320.552 551.791 315.039 586.528 321.34C621.265 327.641 636.492 343.885 643.533 346.543C647.929 348.202 652.896 348.998 658.434 348.931L658.435 348.906L659 348.921L659.565 348.906L659.566 348.931C665.103 348.999 670.071 348.202 674.467 346.543C681.508 343.885 696.735 327.641 731.472 321.34C766.209 315.039 808.963 320.552 815.197 328.428ZM517.054 333.941C497.458 347.331 515.272 393.799 533.977 407.188C552.682 420.577 597.216 417.427 607.905 410.338C618.593 403.25 642.642 372.534 634.626 352.844C626.609 333.154 545.556 319.765 517.054 333.941ZM800.946 333.941C772.444 319.765 691.391 333.154 683.374 352.844C675.358 372.534 699.407 403.25 710.095 410.338C720.784 417.427 765.318 420.577 784.023 407.188C802.728 393.799 820.542 347.331 800.946 333.941Z" fill="black" stroke="black" stroke-width="4" stroke-linecap="round" stroke-linejoin="round"/>
<path fill-rule="evenodd" clip-rule="evenodd" d="M507 338.604L312 370.604L308 379.604L507 359.604V338.604Z" fill="black" stroke="black" stroke-width="4" stroke-linecap="round" stroke-linejoin="round"/>
<path fill-rule="evenodd" clip-rule="evenodd" d="M478 81.6036C333 110.604 262.651 239.157 232 312.604C201.349 386.051 201 539.604 201 665.604C201 791.604 81 909.604 81 909.604H371C371 909.604 470.049 696.298 439 665.604C407.951 634.91 331 548.604 331 548.604C331 548.604 251 534.604 251 468.604C251 402.604 305 395.604 330 395.604C355 395.604 399 276.604 506 228.604C613 180.604 706.325 269.469 727 290.604C772 336.604 783 397.604 783 468.604C783 505.274 777.252 552.367 760 633.604C755.416 655.189 662 909.604 662 909.604H800C800 909.604 796.56 878.554 800 867.604C812.31 828.418 832.378 802.648 838 774.604C852.588 701.835 826.322 584.784 826 567.604C824.177 470.385 851.688 462.684 838 369.604C832.343 331.135 827.535 267.08 777 203.604C726.465 140.127 683 145.604 683 145.604C683 145.604 623 52.6036 478 81.6036Z" fill="black" stroke="black" stroke-width="12" stroke-linecap="round" stroke-linejoin="round"/>
<path d="M313 524.604V572.604" stroke="black" stroke-width="12" stroke-linecap="round" stroke-linejoin="round"/>
<path fill-rule="evenodd" clip-rule="evenodd" d="M313 646.604C326.255 646.604 337 635.858 337 622.604C337 613.767 329 595.767 313 568.604C297 595.767 289 613.767 289 622.604C289 635.858 299.745 646.604 313 646.604Z" fill="white" stroke="black" stroke-width="12" stroke-linecap="round" stroke-linejoin="round"/>
<path d="M510.753 468.625L505.915 488.03M530.753 468.625L525.915 488.03M550.753 468.625L545.915 488.03M808.247 468.625L813.086 488.03M788.247 468.625L793.086 488.03M768.247 468.625L773.086 488.03" stroke="black" stroke-width="12" stroke-linecap="round" stroke-linejoin="round"/>
</g>
<defs>
<linearGradient id="paint0_linear_29_47" x1="544" y1="20" x2="544" y2="800" gradientUnits="userSpaceOnUse">
<stop stop-color="#8351B5"/>
<stop offset="1" stop-color="#70519D"/>
</linearGradient>
<clipPath id="clip0_29_47">
<rect width="1051" height="910" fill="white"/>
</clipPath>
</defs>
</svg>
